<svg xmlns="http://www.w3.org/2000/svg" viewBox="0 0 142.76 104.56"><defs><style>.cls-1{fill:#ffe4b400;}.cls-2{fill:none;stroke:#FFA200;stroke-linecap:round;stroke-linejoin:round;stroke-width:4px;}.cls-3{fill:#231f20;}.cls-4{fill:#faa21b;}</style></defs><title>logo</title><g id="Layer_2" data-name="Layer 2"><g id="Layer_1-2" data-name="Layer 1"><rect class="cls-1" width="142.76" height="104.56" rx="6.38"/><polyline class="cls-2" points="19.43 77.94 19.43 26.8 43.84 51.87"/><polyline class="cls-2" points="74.51 77.77 74.51 26.63 50.1 47.37"/><path class="cls-3" d="M90.18,73.9a13.77,13.77,0,0,1-5.39-5.47,16.82,16.82,0,0,1-2-8.22,16.28,16.28,0,0,1,2-8.17,13.85,13.85,0,0,1,5.47-5.45,16.86,16.86,0,0,1,15.51,0A13.9,13.9,0,0,1,111.3,52a16.26,16.26,0,0,1,2,8.2,16.13,16.13,0,0,1-2.06,8.22,14.37,14.37,0,0,1-5.58,5.47,16,16,0,0,1-7.81,1.93A15.37,15.37,0,0,1,90.18,73.9Zm12.74-3.74a9.66,9.66,0,0,0,3.82-3.79,12.18,12.18,0,0,0,1.46-6.16,12.36,12.36,0,0,0-1.43-6.16A9.36,9.36,0,0,0,103,50.28a10.78,10.78,0,0,0-10,0,9.07,9.07,0,0,0-3.66,3.77A12.69,12.69,0,0,0,88,60.21a13.17,13.17,0,0,0,1.34,6.21,9,9,0,0,0,3.61,3.77,10.16,10.16,0,0,0,5,1.24A10.53,10.53,0,0,0,102.92,70.16Z"/><circle class="cls-4" cx="123.56" cy="71.43" r="3.78"/></g></g></svg>